<mxfile host="app.diagrams.net" modified="2024-05-25T04:58:12.685Z" agent="Mozilla/5.0 (Windows NT 10.0; Win64; x64) AppleWebKit/537.36 (KHTML, like Gecko) Chrome/125.0.0.0 Safari/537.36" version="24.2.5" etag="ylcl48wqIbX_3faTMIA9" type="github">
  <diagram name="Page-1" id="K9kA1V1ZN_3GCW4KsXqz">
    <mxGraphModel>
      <root>
        <mxCell id="0" />
        <mxCell id="1" parent="0" />
      </root>
    </mxGraphModel>
  </diagram>
</mxfile>
